<?xml version="1.0" encoding="utf-8"?>
<!-- Generator: Adobe Illustrator 21.1.0, SVG Export Plug-In . SVG Version: 6.00 Build 0)  -->
<svg version="1.1" id="Ebene_1" xmlns="http://www.w3.org/2000/svg" xmlns:xlink="http://www.w3.org/1999/xlink" x="0px" y="0px"
	 viewBox="0 0 114 43" style="enable-background:new 0 0 114 43;" xml:space="preserve">
<g>
	<defs>
		<rect id="SVGID_1_" width="114" height="43"/>
	</defs>
	<clipPath id="SVGID_2_">
		<use xlink:href="#SVGID_1_"  style="overflow:visible;"/>
	</clipPath>
	<path style="clip-path:url(#SVGID_2_);fill:#004A81;" d="M0,0v43h105.5c0,0,8.5,0,8.5-8.5v-26c0,0,0-8.5-8.5-8.5H0z"/>
	<path style="clip-path:url(#SVGID_2_);fill:#FFCA00;" d="M99.346,9.039c2.535,0.059,3.391,0.206,3.42,2.801v7.222
		c0.088,2.948,0.06,4.364-3.42,4.128V9.039z M101.144,27.17c1.593,0,3.243-0.147,4.6-1.032c1.504-0.943,2.182-2.564,2.211-4.776
		v-9.817c0-2.123-0.324-4.275-2.329-5.454c-1.68-0.973-3.95-1.032-5.837-1.032h-5.631V27.17H101.144z M92.182,5.059h-5.188V27.17
		h5.188V5.059z"/>
	<path style="clip-path:url(#SVGID_2_);fill:#FFFFFF;" d="M76.727,27.409c-1.522,0-2.421-1.188-2.229-3.379
		c0.169-1.931,1.166-4.419,2.459-5.608c0.604-0.557,1.34-0.891,2.121-0.891c1.559,0,2.424,1.151,2.229,3.38
		c-0.169,1.931-1.126,4.382-2.456,5.57C78.283,27.038,77.545,27.409,76.727,27.409 M79.936,11.96c-2.858,0-5.331,1.077-7.35,2.934
		c-2.545,2.34-4.16,5.942-4.461,9.396c-0.446,5.089,2.359,8.69,7.781,8.69c2.821,0,5.331-1.077,7.352-2.97
		c2.505-2.305,4.16-5.943,4.458-9.36C88.166,15.525,85.322,11.96,79.936,11.96 M51.694,32.535h6.685l2.445-7.576
		c1.359-4.085,3.399-5.756,6.668-5.756h0.445l2.484-7.168c-2.732-0.186-4.756,1.3-6.534,3.789l1.157-3.455h-6.647L51.694,32.535z
		 M37.359,32.943c2.192,0,4.044-1.226,5.35-2.562l-0.708,2.153h6.647l6.667-20.166h-6.648L44.824,24.03
		c-0.564,1.783-1.597,2.972-3.082,2.972c-1.152,0-1.616-0.632-1.526-1.673c0.036-0.406,0.169-1.076,0.416-1.781l3.69-11.179h-6.686
		l-3.895,11.847c-0.451,1.338-0.741,2.525-0.829,3.527C32.629,30.975,34.277,32.943,37.359,32.943 M22.436,18.014
		c0.687-0.631,1.499-1.002,2.316-1.002c1.337,0,1.992,1.002,1.875,2.339c-0.045,0.52-0.115,0.892-0.359,1.561h-5.645
		C21.061,19.723,21.71,18.683,22.436,18.014 M31.298,24.551c0.703-1.671,1.109-3.343,1.235-4.792
		c0.384-4.382-1.842-7.799-6.856-7.799c-2.971,0-5.445,1.114-7.424,2.934c-2.626,2.413-4.274,5.979-4.57,9.358
		c-0.468,5.349,2.43,8.728,7.89,8.728c2.897,0,5.395-0.965,7.342-2.414l-2.233-4.196c-1.496,0.966-2.726,1.448-4.064,1.448
		c-1.931,0-2.904-1.188-2.796-3.268H31.298z"/>
</g>
</svg>
